<svg width="1438" height="352" viewBox="0 0 1438 352" fill="none" xmlns="http://www.w3.org/2000/svg">
<rect width="1440" height="352" fill="#5243C2"/>
<rect x="1095.74" y="112.383" width="93.6527" height="93.6527" transform="rotate(90 1095.74 112.383)" fill="#36268C"/>
<rect x="1002.09" width="112.383" height="112.383" transform="rotate(90 1002.09 0)" fill="#36268C"/>
<rect x="837.024" width="53.8503" height="53.8503" transform="rotate(90 837.024 0)" fill="#36268C"/>
<rect x="964.626" y="206.036" width="74.9222" height="74.9222" transform="rotate(90 964.626 206.036)" fill="#36268C"/>
<rect width="84.2874" height="84.2874" transform="matrix(-1 0 0 1 1229.19 196.67)" fill="#36268C"/>
<rect width="23.4132" height="23.4132" transform="matrix(-1 0 0 1 1119.15 257.545)" fill="#36268C"/>
<rect width="35.1198" height="35.1198" transform="matrix(-1 0 0 1 1312.31 141.65)" fill="#36268C"/>
<rect width="49.1677" height="49.1677" transform="matrix(-1 0 0 1 1257.29 0)" fill="#36268C"/>
<rect width="23.4132" height="23.4132" transform="matrix(-1 0 0 1 1168.32 0)" fill="#36268C"/>
<rect width="63.2156" height="63.2156" transform="matrix(-1 0 0 1 1208.12 49.168)" fill="#36268C"/>
</svg>
