<svg width="40" height="40" viewBox="0 0 40 40" fill="none" xmlns="http://www.w3.org/2000/svg">
<path d="M16.9212 9.25917C17.0061 9.43195 17.0622 9.61697 17.0873 9.80719L17.5513 16.7071L17.7817 20.1751C17.7841 20.5317 17.84 20.8861 17.9478 21.2267C18.226 21.8876 18.8953 22.3076 19.6234 22.2783L30.7189 21.5525C31.1993 21.5446 31.6633 21.7243 32.0087 22.0521C32.2965 22.3252 32.4824 22.6826 32.5409 23.0669L32.5606 23.3003C32.1014 29.6581 27.4319 34.9611 21.0872 36.3299C14.7426 37.6988 8.23642 34.8071 5.10116 29.2248C4.19729 27.603 3.63273 25.8204 3.44062 23.9816C3.36036 23.4373 3.32502 22.8874 3.33495 22.3375C3.32504 15.5212 8.1791 9.62822 14.9739 8.20757C15.7917 8.08023 16.5934 8.51316 16.9212 9.25917Z" fill="#9374FF"/>
<path d="M21.45 3.33468C29.0498 3.52802 35.4372 8.99296 36.6666 16.3538L36.6549 16.4081L36.6213 16.4871L36.626 16.7039C36.6086 16.9912 36.4977 17.2675 36.3066 17.4908C36.1075 17.7233 35.8355 17.8817 35.536 17.9432L35.3533 17.9682L22.552 18.7977C22.1262 18.8397 21.7022 18.7023 21.3855 18.4199C21.1217 18.1845 20.953 17.8668 20.9053 17.5244L20.0461 4.74175C20.0311 4.69853 20.0311 4.65167 20.0461 4.60845C20.0578 4.2561 20.2129 3.92305 20.4767 3.6837C20.7405 3.44435 21.091 3.31865 21.45 3.33468Z" fill="#FFDC60"/>
</svg>
