<svg width="40" height="40" viewBox="0 0 40 40" fill="none" xmlns="http://www.w3.org/2000/svg">
<path d="M18.4667 9.81802C18.6043 10.2391 18.5237 10.701 18.2518 11.0506L11.6521 19.5359C11.213 20.1005 10.4067 20.218 9.82466 19.8023L3.22499 15.0882C2.89147 14.85 2.68605 14.4716 2.66795 14.0622C2.64984 13.6527 2.82106 13.2577 3.13225 12.9909L9.73192 7.33407C10.0719 7.04268 10.5354 6.94137 10.9659 7.06438L17.5656 8.95C17.9915 9.07169 18.3292 9.39696 18.4667 9.81802Z" fill="#FFDC60"/>
<path d="M28.9271 20.2782C28.506 20.1407 28.0441 20.2212 27.6945 20.4932L19.2092 27.0928C18.6446 27.5319 18.5271 28.3383 18.9428 28.9203L23.6569 35.5199C23.8951 35.8535 24.2735 36.0589 24.683 36.077C25.0924 36.0951 25.4875 35.9239 25.7542 35.6127L31.411 29.013C31.7024 28.673 31.8037 28.2095 31.6807 27.779L29.7951 21.1793C29.6734 20.7534 29.3482 20.4157 28.9271 20.2782Z" fill="#FFDC60"/>
<path fill-rule="evenodd" clip-rule="evenodd" d="M35.4575 4.2351C35.335 3.7677 34.9691 3.40317 34.5013 3.2823C31.2802 2.45003 27.9897 2.45723 24.9687 3.33131C21.9449 4.20621 19.3105 5.91594 17.3492 8.29333L17.3463 8.29686L14.9333 11.2423C14.9142 11.2656 14.8959 11.2896 14.8784 11.3142C14.8755 11.3183 14.8726 11.3218 14.8696 11.3249C14.8463 11.3493 14.8239 11.3745 14.8026 11.4006L11.979 14.8434L11.9765 14.8465C9.70169 17.6376 8.32145 21.0846 7.95815 24.8163C7.91952 25.2132 8.06055 25.6066 8.34257 25.8885L13.0854 30.6296C13.3533 30.8974 13.7223 31.0386 14.1005 31.018C17.8581 30.8137 21.3417 29.4789 24.0921 27.1538C24.1039 27.1438 24.1156 27.1336 24.127 27.1232L30.4504 21.3891C32.8282 19.4424 34.5407 16.8204 35.4185 13.8067C36.3016 10.7745 36.3051 7.46816 35.4575 4.2351Z" fill="#9374FF"/>
<path d="M24.781 13.8858C25.8224 14.9272 27.5108 14.9272 28.5522 13.8858C29.5936 12.8444 29.5936 11.1559 28.5522 10.1145C27.5108 9.07315 25.8224 9.07315 24.781 10.1145C23.7396 11.1559 23.7396 12.8444 24.781 13.8858Z" fill="#FFDC60"/>
</svg>
